<?xml version="1.0" encoding="UTF-8" standalone="no"?>
<svg
   xmlns:dc="http://purl.org/dc/elements/1.1/"
   xmlns:cc="http://creativecommons.org/ns#"
   xmlns:rdf="http://www.w3.org/1999/02/22-rdf-syntax-ns#"
   xmlns:svg="http://www.w3.org/2000/svg"
   xmlns="http://www.w3.org/2000/svg"
   xmlns:sodipodi="http://sodipodi.sourceforge.net/DTD/sodipodi-0.dtd"
   xmlns:inkscape="http://www.inkscape.org/namespaces/inkscape"
   width="50mm"
   height="50mm"
   viewBox="0 0 50 50"
   version="1.1"
   id="svg8"
   inkscape:version="1.0.2 (e86c870879, 2021-01-15)"
   sodipodi:docname="success.svg">
  <defs
     id="defs2" />
  <sodipodi:namedview
     id="base"
     pagecolor="#ffffff"
     bordercolor="#666666"
     borderopacity="1.0"
     inkscape:pageopacity="0"
     inkscape:pageshadow="2"
     inkscape:zoom="1.6113414"
     inkscape:cx="116.77275"
     inkscape:cy="74.212265"
     inkscape:document-units="mm"
     inkscape:current-layer="layer1"
     inkscape:document-rotation="0"
     showgrid="false"
     inkscape:window-width="2560"
     inkscape:window-height="1016"
     inkscape:window-x="1920"
     inkscape:window-y="28"
     inkscape:window-maximized="1" />
  <metadata
     id="metadata5">
    <rdf:RDF>
      <cc:Work
         rdf:about="">
        <dc:format>image/svg+xml</dc:format>
        <dc:type
           rdf:resource="http://purl.org/dc/dcmitype/StillImage" />
        <dc:title />
      </cc:Work>
    </rdf:RDF>
  </metadata>
  <g
     inkscape:label="Calque 1"
     inkscape:groupmode="layer"
     id="layer1">
    <g
       id="g855"
       transform="matrix(0.26458333,0,0,0.26458333,10.161638,10.161241)"
       style="fill:#26d721;fill-opacity:1">
      <g
         id="fond"
         transform="translate(-43.815,-28.369)"
         style="fill:#26d721;fill-opacity:1">
	
</g>
      <g
         id="compacte"
         transform="translate(-43.815,-28.369)"
         style="fill:#26d721;fill-opacity:1">
	<g
   id="g25"
   style="fill:#26d721;fill-opacity:1">
		<path
   fill="#ffffff"
   d="m 99.895,28.369 c -30.973,0 -56.08,25.108 -56.08,56.079 0,30.977 25.107,56.088 56.08,56.088 30.976,0 56.084,-25.111 56.084,-56.088 0,-30.97 -25.109,-56.079 -56.084,-56.079 z m 30.246,32.46 c -2.597,0.09 -4.39,-1.462 -4.471,-3.818 -0.029,-0.864 0.194,-1.62 0.786,-2.504 0.579,-1.134 0.703,-1.264 0.688,-1.757 -0.053,-1.485 -2.295,-1.541 -2.909,-1.512 -8.419,0.278 -10.638,11.64 -12.437,20.878 l -0.881,4.872 c 4.848,0.709 8.289,-0.165 10.209,-1.407 2.703,-1.755 -0.756,-3.558 -0.32,-5.553 0.442,-2.034 2.292,-3.016 3.763,-3.057 2.058,-0.051 3.526,2.084 3.479,4.251 -0.073,3.582 -4.825,8.503 -14.329,8.302 -1.158,-0.027 -2.225,-0.108 -3.217,-0.228 l -1.793,9.897 c -1.605,7.496 -3.74,17.736 -11.371,26.672 -6.555,7.792 -13.209,9.004 -16.188,9.104 -5.574,0.188 -9.27,-2.783 -9.4,-6.75 -0.129,-3.84 3.268,-5.936 5.496,-6.011 2.975,-0.099 5.033,2.056 5.111,4.54 0.076,2.104 -1.021,2.76 -1.748,3.156 -0.484,0.39 -1.215,0.787 -1.188,1.652 0.018,0.372 0.416,1.224 1.654,1.186 2.355,-0.083 3.92,-1.248 5.014,-2.026 5.43,-4.525 7.52,-12.409 10.256,-26.761 l 0.574,-3.481 c 0.934,-4.667 1.969,-9.872 3.547,-15.059 -3.828,-2.882 -6.121,-6.454 -11.271,-7.851 -3.527,-0.958 -5.68,-0.145 -7.191,1.768 -1.791,2.266 -1.197,5.214 0.533,6.942 l 2.859,3.163 c 3.506,4.05 5.422,7.202 4.701,11.441 -1.145,6.768 -9.207,11.961 -18.742,9.026 -8.137,-2.507 -9.656,-8.268 -8.68,-11.441 0.861,-2.793 3.08,-3.321 5.252,-2.655 2.324,0.719 3.234,3.544 2.57,5.713 -0.074,0.232 -0.193,0.619 -0.438,1.14 -0.27,0.597 -0.77,1.122 -0.984,1.821 -0.523,1.703 1.812,2.914 3.439,3.413 3.641,1.118 7.191,-0.784 8.092,-3.731 0.838,-2.706 -0.875,-4.595 -1.584,-5.319 l -3.447,-3.691 c -1.576,-1.756 -5.047,-6.653 -3.354,-12.151 0.652,-2.121 2.027,-4.37 4.02,-5.859 4.211,-3.137 8.787,-3.652 13.146,-2.399 5.641,1.622 8.35,5.352 11.863,8.233 1.967,-5.769 4.691,-11.415 8.791,-16.18 3.703,-4.34 8.676,-7.484 14.373,-7.68 5.692,-0.188 9.995,2.393 10.137,6.477 0.059,1.738 -0.938,5.118 -4.41,5.234 z"
   id="path5"
   style="fill:#26d721;fill-opacity:1" />

		
	</g>

</g>
      <g
         id="rectangle"
         transform="translate(-43.815,-28.369)"
         style="fill:#26d721;fill-opacity:1">
</g>
      <g
         id="carré"
         transform="translate(-43.815,-28.369)"
         style="fill:#26d721;fill-opacity:1">
</g>
    </g>
  </g>
</svg>
