<?xml version="1.0" encoding="UTF-8" standalone="no"?>
<svg
   xmlns:dc="http://purl.org/dc/elements/1.1/"
   xmlns:cc="http://creativecommons.org/ns#"
   xmlns:rdf="http://www.w3.org/1999/02/22-rdf-syntax-ns#"
   xmlns:svg="http://www.w3.org/2000/svg"
   xmlns="http://www.w3.org/2000/svg"
   xmlns:sodipodi="http://sodipodi.sourceforge.net/DTD/sodipodi-0.dtd"
   xmlns:inkscape="http://www.inkscape.org/namespaces/inkscape"
   enable-background="new 0 0 512 512"
   height="336.88437"
   id="Layer_1"
   version="1.1"
   viewBox="0 0 333.67596 336.88437"
   width="333.67596"
   xml:space="preserve"
   sodipodi:docname="clientIp.svg"
   inkscape:version="1.0.2 (e86c870879, 2021-01-15)"><metadata
     id="metadata13"><rdf:RDF><cc:Work
         rdf:about=""><dc:format>image/svg+xml</dc:format><dc:type
           rdf:resource="http://purl.org/dc/dcmitype/StillImage" /><dc:title></dc:title></cc:Work></rdf:RDF></metadata><defs
     id="defs11" /><sodipodi:namedview
     pagecolor="#ffffff"
     bordercolor="#666666"
     borderopacity="1"
     objecttolerance="10"
     gridtolerance="10"
     guidetolerance="10"
     inkscape:pageopacity="0"
     inkscape:pageshadow="2"
     inkscape:window-width="2560"
     inkscape:window-height="1016"
     id="namedview9"
     showgrid="false"
     fit-margin-top="0"
     fit-margin-left="0"
     fit-margin-right="0"
     fit-margin-bottom="0"
     inkscape:zoom="0.81719451"
     inkscape:cx="-143.96035"
     inkscape:cy="252.64289"
     inkscape:window-x="1920"
     inkscape:window-y="28"
     inkscape:window-maximized="1"
     inkscape:current-layer="Layer_1" /><g
     id="g6"
     transform="translate(-89.587303,-89.398)"
     style="fill:#ffffff;fill-opacity:1"><path
       d="m 372.869,89.398 c 1.316,0 2.631,0 3.947,0 1.905,1.885 3.804,3.775 5.715,5.655 5.303,5.217 10.61,10.43 15.917,15.644 1.697,2.14 3.621,4.054 5.754,5.759 5.6,5.689 11.231,11.35 16.788,17.08 3.043,3.139 3.016,5.699 0.009,8.811 -2.435,2.519 -4.943,4.967 -7.422,7.444 -4.542,4.537 -5.611,4.636 -10.87,0.985 -2.729,3.551 -5.153,7.405 -8.263,10.588 -4.697,4.807 -5.309,10.735 -5.763,16.845 -0.827,5.051 -1.655,10.101 -2.482,15.151 -0.873,5.49 -2.054,6.693 -6.724,6.85 -2.755,-0.845 -4.086,-3.509 -6.353,-4.977 -4.979,-5.066 -10.057,-10.04 -14.884,-15.247 -1.829,-1.973 -2.789,-1.646 -4.51,0.09 -14.865,14.998 -29.843,29.886 -44.736,44.857 -1.776,1.786 -3.731,2.844 -6.211,3.284 -4.505,0.799 -8.97,1.816 -13.452,2.743 -3.143,0.638 -5.866,0.116 -7.72,-2.8 -0.715,-4.585 1.328,-8.796 1.785,-13.217 0.605,-5.879 3.121,-10.455 7.472,-14.659 14.166,-13.686 27.947,-27.77 41.852,-41.724 0.856,-0.86 2.63,-1.509 0.777,-3.264 -4.68,-4.434 -9.234,-9 -13.838,-13.513 -1.711,-2.131 -3.622,-4.059 -5.766,-5.755 -2.947,-5.374 -1.583,-8.26 4.5,-9.447 2.138,-0.417 4.294,-0.745 6.441,-1.114 5.07,-0.627 10.145,-1.222 15.128,-2.401 3.428,0.149 6.32,-0.919 8.977,-3.205 3.393,-2.92 6.994,-5.619 10.668,-8.183 1.897,-1.324 2.436,-2.323 0.68,-4.163 -1.099,-1.152 -1.236,-2.743 -0.797,-4.314 l -10e-4,0.041 c 3.629,-5.416 8.658,-9.483 13.382,-13.844 z"
       id="path2"
       style="fill:#ffffff;fill-opacity:1" /><path
       d="m 361.067,205.839 c 1.512,2.635 3.023,5.271 4.535,7.906 4.199,9.442 8.33,18.908 10.913,28.959 0.457,1.777 0.987,3.535 1.482,5.303 0.401,3.545 1.143,7.023 2.072,10.464 0.51,7.63 1.429,15.223 1.411,22.901 -0.019,8.229 -1.159,16.332 -2.031,24.472 -1.299,5.484 -2.598,10.969 -3.897,16.453 -3.45,9.75 -7.075,19.427 -12.207,28.454 -19.182,33.741 -47.194,56.712 -84.062,68.871 -0.615,0.203 -1.204,0.489 -1.805,0.736 -5.483,1.304 -10.967,2.608 -16.451,3.912 -9.125,1.068 -18.233,2.14 -27.465,2 -21.871,-0.333 -42.589,-5.309 -62.232,-14.878 -0.775,-0.377 -1.599,-0.655 -2.4,-0.979 -2.638,-1.491 -5.275,-2.981 -7.913,-4.472 -9.063,-5.674 -17.576,-12.077 -25.517,-19.238 -2.434,-2.44 -4.868,-4.879 -7.302,-7.319 -7.307,-8.357 -13.901,-17.236 -19.596,-26.773 -1.323,-2.451 -2.645,-4.902 -3.968,-7.353 -5.158,-10.979 -9.06,-22.399 -12.016,-34.153 -0.854,-6.251 -1.979,-12.48 -2.508,-18.758 -1.338,-15.869 -0.116,-31.573 3.767,-47.046 0.103,-0.411 0.032,-0.866 0.042,-1.3 1.254,-2.957 2.003,-6.062 2.705,-9.182 3.512,-9.016 7.065,-18.009 11.959,-26.402 18.44,-31.625 44.816,-53.704 79.327,-66.015 0.92,-0.328 1.81,-0.742 2.713,-1.116 5.702,-1.482 11.403,-2.964 17.105,-4.446 5.633,-0.673 11.257,-1.433 16.901,-1.999 10.392,-1.043 20.746,-0.015 31.1,0.761 3.495,0.756 6.968,1.628 10.55,1.892 11.76,2.931 23.167,6.866 34.165,11.972 2.323,1.58 4.794,2.883 7.38,3.975 2.74,1.747 5.467,3.517 8.228,5.231 1.257,0.78 1.632,1.344 0.304,2.596 -3.482,3.282 -6.826,6.712 -10.153,10.153 -1.006,1.041 -1.792,1.164 -3.056,0.381 -2.474,-1.534 -4.84,-3.292 -7.647,-4.233 -4.541,-2.775 -9.297,-5.041 -15.274,-6.833 3.866,4.589 6.163,9.046 8.959,13.175 1.351,2.726 2.682,5.463 4.065,8.173 0.482,0.944 0.681,1.639 -0.251,2.552 -4.137,4.055 -8.179,8.205 -12.483,12.55 -1.937,-3.877 -3.708,-7.42 -5.479,-10.963 -1.359,-2.853 -2.639,-5.751 -4.709,-8.196 -0.908,-1.473 -1.718,-3.019 -2.74,-4.409 -5.658,-7.697 -11.86,-14.799 -21.003,-18.561 -3.112,-1.584 -6.37,-2.58 -9.907,-2.442 -9.455,-0.625 -16.889,3.785 -23.454,9.844 -10.833,9.997 -17.654,22.63 -22.958,36.183 -1.866,5.327 -3.733,10.652 -5.715,16.31 2.171,-0.355 3.752,-0.613 5.332,-0.871 2.602,-0.331 5.206,-0.652 7.807,-0.996 13.809,-1.831 27.704,-2.169 41.606,-2.37 4.16,0.641 8.345,0.4 12.523,0.356 6.524,0.618 13.044,1.296 19.576,1.816 1.921,0.153 2.248,0.713 1.852,2.608 -1.035,4.956 -2.774,9.895 -1.004,15.436 -13.558,-1.208 -26.817,-2.555 -40.154,-1.967 -4.394,-0.072 -8.798,-0.431 -13.156,0.482 -12.395,0.145 -24.582,2.114 -36.758,4.178 -1.22,0.207 -2.017,0.583 -2.291,2.157 -2.101,12.082 -3.415,24.232 -3.628,36.496 0.002,4.173 0.005,8.346 0.007,12.519 -0.187,13.483 1.399,26.799 3.617,40.07 0.335,2.008 1.258,2.253 2.856,1.985 3.424,1.127 6.989,1.494 10.536,1.952 14.371,2.273 28.837,3.157 43.378,2.968 4.399,-0.106 8.8,-0.212 13.2,-0.319 13.364,-0.352 26.561,-2.152 39.699,-4.513 1.306,-0.235 1.538,-1.03 1.69,-2.024 1.939,-12.652 3.708,-25.319 3.435,-38.171 0.532,-4.168 0.664,-8.335 -0.027,-12.501 0.364,-10.633 -0.799,-21.161 -2.453,-31.626 -0.418,-2.645 0.412,-3.438 2.701,-3.786 2.799,-0.425 5.562,-1.095 8.365,-1.481 6.273,-0.865 10.809,-4.583 14.568,-9.212 2.911,-3.586 5.683,-4.526 9.915,-2.158 3.382,1.892 7.231,2.95 10.872,4.379 2.102,1.432 4.393,2.491 6.754,3.411 3.817,2.3 7.635,4.6 11.95,7.2 -1.807,-4.738 -2.96,-9.035 -5.203,-12.903 -1.128,-2.956 -2.336,-5.872 -4.23,-8.445 -1.737,-4.283 -4.553,-7.926 -6.986,-11.797 -0.496,-0.789 -1.286,-1.429 -0.19,-2.499 3.988,-3.886 7.88,-7.87 11.995,-12.006 2.924,4.383 5.643,8.451 8.362,12.519 z m -242.354,126.18 c 0.754,2.655 2.025,5.065 3.502,7.376 5.122,10.282 11.589,19.611 19.687,27.784 1.617,2.321 3.698,4.186 5.861,5.971 8.01,7.927 16.982,14.525 27.067,19.586 4.73,3.082 9.934,5.122 15.351,6.941 -3.295,-4.335 -5.771,-9.108 -8.713,-13.586 -5.545,-10.706 -9.948,-21.88 -13.685,-33.327 -0.883,-3.243 -1.767,-6.485 -2.649,-9.728 0.272,-1.824 -1.276,-1.817 -2.298,-2.092 -10.505,-2.826 -20.776,-6.306 -30.698,-10.786 -3.076,-1.556 -6.153,-3.112 -9.229,-4.668 -2.767,-1.783 -5.532,-3.566 -8.994,-5.798 1.365,4.795 2.724,8.692 4.798,12.327 z m 204.892,-88.183 c -4.202,-2.155 -8.678,-3.452 -13.513,-4.743 0.61,5.472 1.165,10.448 1.719,15.423 0.768,4.145 0.101,8.415 1.105,12.539 0.017,5.343 0.012,10.686 0.058,16.028 0.092,10.701 -1.109,21.323 -1.925,31.968 -0.743,2.12 -0.91,4.277 -0.64,6.667 4.811,-1.662 9.494,-2.891 13.861,-5.016 12.386,-4.874 24.059,-10.926 32.867,-21.251 4.328,-5.073 7.378,-10.796 5.842,-17.895 -0.206,-3.519 -1.573,-6.562 -3.785,-9.261 -0.29,-0.575 -0.487,-1.226 -0.884,-1.715 -6.867,-8.437 -15.598,-14.342 -25.473,-18.682 -2.864,-1.837 -5.974,-3.118 -9.232,-4.062 z m -178.204,72.207 c 4.915,2.486 10.158,4.025 15.622,5.723 -0.711,-6.216 -1.379,-12.052 -2.047,-17.887 -0.24,-3.956 -0.479,-7.912 -0.719,-11.867 -0.05,-4.8 -0.16,-9.601 -0.139,-14.401 0.05,-11.463 1.035,-22.87 2.219,-34.262 0.335,-1.351 0.9,-2.676 0.453,-4.323 -5.782,1.768 -11.505,3.521 -16.877,6.258 -11.582,4.609 -22.216,10.692 -30.349,20.37 -3.786,4.505 -6.399,9.633 -5.755,15.843 0.03,3.409 1.041,6.499 3.021,9.272 0.643,1.124 1.15,2.358 1.95,3.356 6.745,8.403 15.453,14.174 25.158,18.583 2.354,1.411 4.78,2.661 7.463,3.335 z m 72.193,33.357 c -10.945,-0.504 -21.798,-1.979 -32.885,-3.572 3.022,9.387 5.745,18.334 10.187,26.625 1.41,2.999 2.907,5.95 4.797,8.683 1.271,2.014 2.43,4.11 3.834,6.028 5.24,7.161 10.994,13.79 19.266,17.653 3.056,1.86 6.314,3.054 9.945,3.009 7.758,1.373 14.469,-1.381 20.429,-5.847 14.739,-11.044 22.792,-26.644 28.868,-43.501 0.694,-1.943 1.425,-3.874 2.075,-5.832 2.348,-7.066 2.338,-7.069 -5.232,-5.695 -4.888,0.546 -9.774,1.114 -14.666,1.631 -11.553,1.222 -23.153,1.311 -34.752,1.425 -3.956,-0.201 -7.911,-0.404 -11.866,-0.607 z m 64.092,50.134 c 3.821,-1.222 7.475,-2.816 10.917,-4.884 0.406,-0.124 0.843,-0.189 1.214,-0.381 15.217,-7.897 28.459,-18.302 39.476,-31.445 6.527,-7.786 12.401,-16.036 16.517,-25.407 3.217,-5.451 5.346,-11.342 7.373,-17.553 -4.143,2.428 -7.916,4.789 -11.823,6.902 -11.474,6.203 -23.659,10.615 -36.26,13.859 -2.363,0.609 -3.367,1.787 -3.88,4.027 -1.902,8.304 -4.673,16.332 -7.756,24.272 -4.17,10.739 -9.797,20.675 -16.146,30.237 -0.301,0.081 -0.612,0.199 -0.37,0.565 0.048,0.07 0.483,-0.121 0.738,-0.192 z M 123.512,218.995 c -4.25,6.699 -6.968,14.067 -9.85,22.125 2.377,-1.498 4.166,-2.67 5.998,-3.771 13.178,-7.915 27.354,-13.417 42.191,-17.264 2.264,-0.587 3.331,-1.633 3.922,-3.998 3.711,-14.847 8.923,-29.148 16.485,-42.502 2.375,-4.194 5.104,-8.188 8.064,-12.898 -6.011,2.366 -11.334,4.443 -16.143,7.638 -9.223,4.483 -17.279,10.652 -24.795,17.516 -10.484,9.575 -19.416,20.411 -25.872,33.154 z"
       id="path4"
       style="fill:#ffffff;fill-opacity:1" /></g></svg>
