<?xml version="1.0" encoding="UTF-8" standalone="no"?>
<svg
   xmlns:dc="http://purl.org/dc/elements/1.1/"
   xmlns:cc="http://creativecommons.org/ns#"
   xmlns:rdf="http://www.w3.org/1999/02/22-rdf-syntax-ns#"
   xmlns:svg="http://www.w3.org/2000/svg"
   xmlns="http://www.w3.org/2000/svg"
   xmlns:sodipodi="http://sodipodi.sourceforge.net/DTD/sodipodi-0.dtd"
   xmlns:inkscape="http://www.inkscape.org/namespaces/inkscape"
   id="Layer_1"
   style="enable-background:new 0 0 256 256;"
   version="1.1"
   viewBox="0 0 256 256"
   xml:space="preserve"
   sodipodi:docname="method.svg"
   inkscape:version="1.0.2 (e86c870879, 2021-01-15)"><metadata
     id="metadata15"><rdf:RDF><cc:Work
         rdf:about=""><dc:format>image/svg+xml</dc:format><dc:type
           rdf:resource="http://purl.org/dc/dcmitype/StillImage" /></cc:Work></rdf:RDF></metadata><defs
     id="defs13" /><sodipodi:namedview
     pagecolor="#ffffff"
     bordercolor="#666666"
     borderopacity="1"
     objecttolerance="10"
     gridtolerance="10"
     guidetolerance="10"
     inkscape:pageopacity="0"
     inkscape:pageshadow="2"
     inkscape:window-width="2560"
     inkscape:window-height="1016"
     id="namedview11"
     showgrid="false"
     inkscape:zoom="3.268778"
     inkscape:cx="128"
     inkscape:cy="128"
     inkscape:window-x="1920"
     inkscape:window-y="28"
     inkscape:window-maximized="1"
     inkscape:current-layer="Layer_1" /><path
     d="m 250,107.8 c -0.4,-2.3 -2.4,-4.1 -4.7,-4.2 -0.1,0 -0.5,0 -0.6,0 h -4.6 c -3.9,0 -7.9,0 -11.9,0 C 225.7,93.2 221.6,83.4 216,74.2 l 1.4,-1.4 c 3.5,-3.5 7,-7.1 10.6,-10.5 1.8,-1.7 2,-4.5 0.6,-6.5 -7.9,-11 -17.5,-20.5 -28.5,-28.4 -2,-1.4 -4.8,-1.2 -6.5,0.6 -1.9,2 -3.9,3.9 -5.8,5.8 -2.1,2 -4.1,4.1 -6.1,6.2 -9.2,-5.6 -19.1,-9.6 -29.5,-12.1 0,-1.4 0,-2.9 0,-4.3 v -2.4 c 0,-0.2 0,-0.4 0,-0.6 v -2.9 c 0,-2.1 0,-4.3 0,-6.7 0,-2.5 -1.8,-4.6 -4.2,-5 -13,-2.1 -26.5,-2.1 -39.5,0 -2.5,0.4 -4.3,2.7 -4.2,5.3 0.1,2.1 0.1,4.3 0,6.4 v 2.9 c 0,0.2 0,0.4 0,0.6 v 2.4 c 0,1.5 0,2.9 0,4.3 C 93.9,30.4 84,34.4 74.8,40 c -2,-2.1 -4.1,-4.1 -6.1,-6.2 -1.9,-1.9 -3.9,-3.9 -5.8,-5.8 -1.7,-1.8 -4.5,-2 -6.5,-0.6 -11,7.9 -20.6,17.5 -28.5,28.4 -1.5,2 -1.2,4.8 0.6,6.5 3.6,3.5 7.1,7 10.6,10.5 l 1.4,1.4 c -5.6,9.1 -9.7,19 -12.2,29.4 -4,-0.1 -8,-0.1 -11.9,0 h -4.6 c -0.1,0 -0.5,0 -0.6,0 -2.4,0.1 -4.4,1.9 -4.7,4.2 -1.1,6.6 -1.6,13.4 -1.6,20.2 0,6.7 0.5,13.5 1.6,20.1 0.4,2.3 2.2,4 4.5,4.2 0.4,0 0.9,0.1 1.3,0.1 3.4,0 6.7,0 10.1,0 2,0 4,0 6,0 2.5,10.5 6.7,20.5 12.4,29.7 -2.3,2.2 -4.6,4.5 -6.8,6.8 l -3.8,3.8 c -0.6,0.6 -1.1,1.1 -1.5,1.5 -1.6,1.8 -1.8,4.4 -0.4,6.3 7.9,10.9 17.4,20.3 28.3,28.2 1.9,1.4 4.6,1.2 6.3,-0.4 0.2,-0.2 0.4,-0.4 0.5,-0.5 2.3,-2.4 4.6,-4.7 6.9,-7 1.5,-1.5 3.1,-3.1 4.6,-4.6 9.2,5.6 19.1,9.7 29.6,12.2 0,2.8 0,5.6 0,8.5 0,2.7 0,5.3 0,8.1 0,0.1 0,0.6 0,0.7 0.1,2.3 1.9,4.3 4.2,4.6 6.4,1 13.1,1.6 19.7,1.6 6.6,0 13.2,-0.5 19.7,-1.6 2.3,-0.4 4.1,-2.3 4.2,-4.6 0,-0.1 0,-0.7 0,-0.8 0,-2.7 0,-5.3 0,-8 0,-2.8 0,-5.6 0,-8.5 10.5,-2.5 20.4,-6.6 29.6,-12.2 1.5,1.6 3.1,3.1 4.6,4.6 2.3,2.3 4.6,4.6 6.9,6.9 0.2,0.2 0.4,0.4 0.6,0.6 1.8,1.6 4.4,1.8 6.3,0.4 10.9,-7.8 20.5,-17.3 28.3,-28.2 1.4,-1.9 1.2,-4.6 -0.4,-6.3 -0.4,-0.4 -0.9,-1 -1.5,-1.5 l -3.8,-3.8 c -2.2,-2.2 -4.5,-4.5 -6.8,-6.8 5.7,-9.2 9.8,-19.2 12.4,-29.7 2,0 4,0 6,0 3.4,0 6.7,0 10,0 0.5,0 1,0 1.4,0 2.3,-0.2 4.1,-1.9 4.5,-4.2 1.1,-6.6 1.6,-13.3 1.6,-20.1 -0.4,-6.9 -0.9,-13.6 -2,-20.3 z m -9.3,34.4 c -2.2,0 -4.4,0 -6.6,0 -3.1,0 -6.2,0 -9.4,0 -0.4,0 -0.7,0 -1,0 -2.3,0.2 -4.1,1.8 -4.6,4 -2.4,12 -7.1,23.3 -14,33.5 -1.2,1.7 -1.1,4 0,5.7 0.4,0.6 0.9,1.2 1.6,1.8 2.9,2.8 5.8,5.7 8.7,8.6 l 2.1,2.1 c -5.8,7.4 -12.5,14.1 -20,19.9 -1.4,-1.4 -2.9,-2.9 -4.3,-4.3 -2.2,-2.2 -4.3,-4.3 -6.5,-6.5 -0.6,-0.6 -1.2,-1.2 -1.9,-1.6 -1.7,-1.1 -3.8,-1.1 -5.5,0 -10.2,6.8 -21.4,11.4 -33.3,13.7 -1.9,0.4 -3.4,1.8 -3.9,3.7 -0.2,0.9 -0.3,1.9 -0.3,3 0.1,3.6 0.1,7.1 0.1,10.7 0,1.4 0,2.7 0,4.1 -9.1,1.1 -18.5,1.1 -27.7,0 0,-1.4 0,-2.7 0,-4.1 0,-3.6 0,-7.1 0.1,-10.7 0,-1.1 -0.1,-2.1 -0.3,-3 -0.5,-1.9 -2,-3.4 -3.9,-3.7 -12,-2.3 -23.2,-6.9 -33.3,-13.7 -1.7,-1.1 -3.8,-1.1 -5.5,0 -0.7,0.4 -1.3,1 -1.9,1.6 -2.1,2.2 -4.3,4.4 -6.5,6.5 -1.4,1.4 -2.9,2.8 -4.3,4.3 -7.5,-5.8 -14.2,-12.5 -20,-19.9 l 2.1,-2.1 c 2.9,-2.9 5.7,-5.8 8.7,-8.6 0.6,-0.6 1.1,-1.2 1.5,-1.8 1.2,-1.7 1.2,-3.9 0,-5.7 -6.9,-10.2 -11.6,-21.5 -14,-33.5 -0.4,-2.2 -2.3,-3.9 -4.6,-4 -0.3,0 -0.7,-0.1 -1.1,0 -3.1,0 -6.2,0 -9.3,0 -2.2,0 -4.3,0 -6.6,0 -0.6,-4.7 -0.9,-9.5 -0.9,-14.2 0,-4.8 0.3,-9.6 0.9,-14.3 H 16 c 4.5,0 9.2,0 13.8,0.1 1.3,0 2.4,-0.1 3.4,-0.3 1.9,-0.5 3.3,-2 3.6,-3.9 2.4,-11.8 7,-22.9 13.7,-33 1.1,-1.7 1.1,-3.8 0.1,-5.5 -0.7,-1.1 -1.6,-2 -2.8,-3.2 l -2,-2 c -2.5,-2.5 -5,-5 -7.5,-7.5 C 44.2,50.7 51,44 58.6,38.1 c 0.9,0.9 1.9,1.9 2.8,2.8 2.5,2.5 5,5 7.4,7.5 0.7,0.7 1.8,1.7 3.3,2.4 1.6,0.7 3.4,0.5 4.8,-0.4 C 87,43.7 98.1,39.1 110,36.8 c 1.9,-0.4 3.4,-1.8 3.9,-3.6 0.2,-0.9 0.3,-1.8 0.3,-2.9 -0.1,-2.3 -0.1,-4.5 0,-6.8 v -3.1 c 0,-0.2 0,-0.4 0,-0.6 v -2.2 c 0,-0.8 0,-1.6 0,-2.4 9.2,-1.1 18.5,-1.1 27.7,0 0,0.8 0,1.6 0,2.4 v 2.2 c 0,0.2 0,0.4 0,0.6 v 3.1 c 0,2.3 0,4.5 0,6.8 0,1.1 0.1,2 0.3,2.9 0.5,1.8 2,3.3 3.9,3.6 11.9,2.3 23,6.9 33.1,13.6 1.4,0.9 3.2,1.1 4.8,0.4 1.5,-0.7 2.6,-1.7 3.3,-2.4 2.4,-2.5 4.9,-5 7.4,-7.5 0.9,-0.9 1.9,-1.9 2.8,-2.8 7.6,5.9 14.4,12.6 20.2,20.1 -2.5,2.5 -5,5 -7.5,7.5 l -2,2 c -1.2,1.2 -2.1,2.1 -2.8,3.2 -1.1,1.7 -1,3.8 0.1,5.5 6.7,10.1 11.3,21.2 13.7,33 0.4,1.9 1.8,3.4 3.6,3.9 1,0.3 2.1,0.4 3.4,0.3 4.6,-0.2 9.3,-0.1 13.8,-0.1 h 0.7 c 0.6,4.7 0.9,9.6 0.9,14.3 0,5 -0.3,9.7 -0.9,14.4 z m 3.9,-33.5 v 0 z"
     id="path2"
     style="fill:#ffffff;fill-opacity:1" /><path
     d="m 180.7,90.1 c -4.1,-5.8 -9.2,-10.8 -15,-14.9 -8.1,-5.8 -17.6,-9.7 -27.4,-11.3 -6.8,-1.1 -13.9,-1.1 -20.7,0 -9.8,1.6 -19.3,5.5 -27.4,11.3 -5.8,4.1 -10.8,9.2 -15,14.9 -5.8,8.1 -9.7,17.5 -11.4,27.3 -0.6,3.5 -0.9,7 -0.9,10.6 0,3.5 0.3,7.1 0.8,10.5 1.6,9.9 5.6,19.4 11.5,27.5 4.1,5.7 9.1,10.7 14.9,14.8 8.1,5.8 17.6,9.7 27.4,11.3 3.4,0.5 6.9,0.8 10.3,0.8 3.4,0 6.9,-0.3 10.3,-0.8 9.8,-1.6 19.3,-5.5 27.4,-11.3 5.7,-4.1 10.7,-9.1 14.9,-14.8 5.9,-8.1 9.9,-17.6 11.5,-27.5 0,0 0,0 0,0 0.6,-3.5 0.8,-7 0.8,-10.5 0,-3.6 -0.3,-7.1 -0.9,-10.6 -1.3,-9.8 -5.3,-19.2 -11.1,-27.3 z m 1.5,46.8 c -1.4,8.3 -4.7,16.4 -9.7,23.2 -3.5,4.8 -7.7,9 -12.6,12.5 -6.8,4.9 -14.8,8.2 -23.1,9.5 -5.8,0.9 -11.7,0.9 -17.5,0 -8.3,-1.3 -16.3,-4.6 -23.2,-9.5 -4.8,-3.5 -9.1,-7.7 -12.6,-12.5 -5,-6.9 -8.3,-14.9 -9.7,-23.2 -0.5,-2.9 -0.7,-5.9 -0.7,-8.9 0,-3 0.2,-6 0.7,-9 1.4,-8.3 4.7,-16.3 9.6,-23.1 3.5,-4.9 7.8,-9.1 12.7,-12.6 6.8,-4.9 14.8,-8.2 23.1,-9.5 2.9,-0.5 5.8,-0.7 8.8,-0.7 3,0 5.9,0.2 8.8,0.7 8.3,1.3 16.3,4.6 23.1,9.5 4.9,3.5 9.2,7.8 12.7,12.6 4.9,6.8 8.2,14.8 9.6,23.1 0.5,2.9 0.7,5.9 0.7,9 0,3 -0.3,6 -0.7,8.9 z"
     id="path4"
     style="fill:#ffffff;fill-opacity:1" /><path
     d="M 153.5,105.8 118,139.5 102.7,123.6 c -1.9,-2 -5.1,-2.1 -7.1,-0.1 -2,1.9 -2.1,5.1 -0.1,7.1 l 18.8,19.5 c 1,1 2.3,1.5 3.6,1.5 1.2,0 2.5,-0.5 3.5,-1.4 L 160.6,113 c 2,-1.9 2.1,-5.1 0.2,-7.1 -2.1,-2 -5.2,-2.1 -7.3,-0.1 z"
     id="path6"
     style="fill:#ffffff;fill-opacity:1" /></svg>
