<?xml version="1.0" encoding="UTF-8" standalone="no"?>
<svg
   xmlns:dc="http://purl.org/dc/elements/1.1/"
   xmlns:cc="http://creativecommons.org/ns#"
   xmlns:rdf="http://www.w3.org/1999/02/22-rdf-syntax-ns#"
   xmlns:svg="http://www.w3.org/2000/svg"
   xmlns="http://www.w3.org/2000/svg"
   xmlns:sodipodi="http://sodipodi.sourceforge.net/DTD/sodipodi-0.dtd"
   xmlns:inkscape="http://www.inkscape.org/namespaces/inkscape"
   enable-background="new 0 0 96 96"
   height="96px"
   version="1.1"
   viewBox="0 0 96 96"
   width="96px"
   id="svg4"
   sodipodi:docname="open.svg"
   inkscape:version="1.0.2 (e86c870879, 2021-01-15)">
  <metadata
     id="metadata10">
    <rdf:RDF>
      <cc:Work
         rdf:about="">
        <dc:format>image/svg+xml</dc:format>
        <dc:type
           rdf:resource="http://purl.org/dc/dcmitype/StillImage" />
      </cc:Work>
    </rdf:RDF>
  </metadata>
  <defs
     id="defs8" />
  <sodipodi:namedview
     pagecolor="#ffffff"
     bordercolor="#666666"
     borderopacity="1"
     objecttolerance="10"
     gridtolerance="10"
     guidetolerance="10"
     inkscape:pageopacity="0"
     inkscape:pageshadow="2"
     inkscape:window-width="1920"
     inkscape:window-height="1044"
     id="namedview6"
     showgrid="false"
     inkscape:zoom="9.0018685"
     inkscape:cx="48"
     inkscape:cy="48"
     inkscape:window-x="0"
     inkscape:window-y="0"
     inkscape:window-maximized="1"
     inkscape:current-layer="svg4" />
  <path
     id="path4"
     style="fill:#ffffff;fill-opacity:1;stroke-width:0.999997"
     d="M 91.996,7.958 C 91.993,7.709 91.97,7.46 91.921,7.216 91.898,7.104 91.856,7 91.824,6.891 91.784,6.749 91.75,6.606 91.693,6.468 91.643,6.346 91.573,6.237 91.511,6.122 91.449,6.007 91.398,5.888 91.324,5.778 91.204,5.599 91.063,5.436 90.917,5.279 90.885,5.244 90.862,5.204 90.828,5.171 90.797,5.14 90.761,5.12 90.728,5.09 90.569,4.94 90.402,4.797 90.219,4.674 90.111,4.602 89.993,4.551 89.88,4.49 89.764,4.428 89.652,4.357 89.53,4.306 89.391,4.248 89.247,4.215 89.103,4.174 88.996,4.143 88.893,4.101 88.782,4.079 88.525,4.027 88.262,4 87.999,4 H 64 c -2.209,0 -4,1.791 -4,4 0,2.209 1.791,4 4,4 h 14.343 l -32.77,32.77 c -1.562,1.562 -1.562,4.095 0,5.656 1.562,1.562 4.095,1.562 5.656,0 L 84,17.656 V 32 c 0,2.209 1.791,4 4,4 2.209,0 4,-1.791 4,-4 V 8 C 92,7.986 91.996,7.973 91.996,7.958 Z M 88,48 c -2.209,0 -4,1.791 -4,4 v 28 c 0,2.21 -1.79,4 -4,4 H 16 c -2.21,0 -4,-1.79 -4,-4 V 16 c 0,-2.21 1.79,-4 4,-4 h 28 c 2.209,0 4,-1.791 4,-4 C 48,5.791 46.209,4 44,4 H 16 C 9.373,4 4,9.373 4,16 v 64 c 0,6.627 5.373,12 12,12 h 64 c 6.627,0 12,-5.373 12,-12 V 52 c 0,-2.209 -1.791,-4 -4,-4 z" />
</svg>
