<?xml version="1.0" encoding="UTF-8" standalone="no"?>
<svg
   xmlns:dc="http://purl.org/dc/elements/1.1/"
   xmlns:cc="http://creativecommons.org/ns#"
   xmlns:rdf="http://www.w3.org/1999/02/22-rdf-syntax-ns#"
   xmlns:svg="http://www.w3.org/2000/svg"
   xmlns="http://www.w3.org/2000/svg"
   xmlns:sodipodi="http://sodipodi.sourceforge.net/DTD/sodipodi-0.dtd"
   xmlns:inkscape="http://www.inkscape.org/namespaces/inkscape"
   style="enable-background:new 0 0 32 32;"
   version="1.1"
   viewBox="0 0 32 32"
   xml:space="preserve"
   id="svg29"
   sodipodi:docname="status.svg"
   inkscape:version="1.0.2 (e86c870879, 2021-01-15)"><metadata
     id="metadata35"><rdf:RDF><cc:Work
         rdf:about=""><dc:format>image/svg+xml</dc:format><dc:type
           rdf:resource="http://purl.org/dc/dcmitype/StillImage" /></cc:Work></rdf:RDF></metadata><defs
     id="defs33" /><sodipodi:namedview
     pagecolor="#ffffff"
     bordercolor="#666666"
     borderopacity="1"
     objecttolerance="10"
     gridtolerance="10"
     guidetolerance="10"
     inkscape:pageopacity="0"
     inkscape:pageshadow="2"
     inkscape:window-width="1920"
     inkscape:window-height="1044"
     id="namedview31"
     showgrid="false"
     inkscape:zoom="27.005605"
     inkscape:cx="16"
     inkscape:cy="16"
     inkscape:window-x="0"
     inkscape:window-y="0"
     inkscape:window-maximized="1"
     inkscape:current-layer="svg29" /><g
     id="Guides"
     style="fill:#fdfdfd;fill-opacity:1" /><g
     id="_x32_0"
     style="fill:#fdfdfd;fill-opacity:1" /><g
     id="_x31_9"
     style="fill:#fdfdfd;fill-opacity:1" /><g
     id="_x31_8"
     style="fill:#fdfdfd;fill-opacity:1" /><g
     id="_x31_7"
     style="fill:#fdfdfd;fill-opacity:1" /><g
     id="_x31_6"
     style="fill:#fdfdfd;fill-opacity:1" /><g
     id="_x31_5"
     style="fill:#fdfdfd;fill-opacity:1" /><g
     id="_x31_4"
     style="fill:#fdfdfd;fill-opacity:1" /><g
     id="_x31_3"
     style="fill:#fdfdfd;fill-opacity:1" /><g
     id="_x31_2"
     style="fill:#fdfdfd;fill-opacity:1" /><g
     id="_x31_1"
     style="fill:#fdfdfd;fill-opacity:1" /><g
     id="_x31_0"
     style="fill:#fdfdfd;fill-opacity:1" /><g
     id="_x30_9"
     style="fill:#fdfdfd;fill-opacity:1" /><g
     id="_x30_8"
     style="fill:#fdfdfd;fill-opacity:1" /><g
     id="_x30_7"
     style="fill:#fdfdfd;fill-opacity:1" /><g
     id="_x30_6"
     style="fill:#fdfdfd;fill-opacity:1" /><g
     id="_x30_5"
     style="fill:#fdfdfd;fill-opacity:1" /><g
     id="_x30_4"
     style="fill:#fdfdfd;fill-opacity:1" /><g
     id="_x30_3"
     style="fill:#fdfdfd;fill-opacity:1" /><g
     id="_x30_2"
     style="fill:#fdfdfd;fill-opacity:1" /><path
     d="M 29,2 H 3 C 2.4472656,2 2,2.4472656 2,3 v 20 c 0,0.552734 0.4472656,1 1,1 h 9 v 4 H 9 c -0.5527344,0 -1,0.447266 -1,1 0,0.552734 0.4472656,1 1,1 h 4 6 4 c 0.552734,0 1,-0.447266 1,-1 0,-0.552734 -0.447266,-1 -1,-1 h -3 v -4 h 9 c 0.552734,0 1,-0.447266 1,-1 V 3 C 30,2.4472656 29.552734,2 29,2 Z M 18,28 h -4 v -4 h 4 z M 28,22 H 19 13 4 V 4 h 24 z"
     id="path22"
     style="fill:#fdfdfd;fill-opacity:1" /><path
     d="m 7,14 h 4 c 0.314453,0 0.611328,-0.148437 0.799805,-0.400391 l 1.905273,-2.539062 2.358398,6.291015 c 0.119141,0.31836 0.392579,0.553711 0.72461,0.625977 C 16.858398,17.992187 16.929687,18 17,18 c 0.262695,0 0.517578,-0.103516 0.707031,-0.292969 L 21.414062,14 H 25 c 0.552734,0 1,-0.447266 1,-1 0,-0.552734 -0.447266,-1 -1,-1 h -4 c -0.265625,0 -0.519531,0.105469 -0.707031,0.292969 L 17.390625,15.194336 14.936523,8.6484376 C 14.807617,8.3066407 14.503906,8.0615235 14.141601,8.0097657 13.78125,7.9580079 13.418945,8.1083985 13.200195,8.4003907 L 10.5,12 H 7 c -0.5527344,0 -1,0.447266 -1,1 0,0.552734 0.4472656,1 1,1 z"
     id="path24"
     style="fill:#fdfdfd;fill-opacity:1" /></svg>
